<svg version="1.1" xmlns="http://www.w3.org/2000/svg" xmlns:xlink="http://www.w3.org/1999/xlink" width="256" height="256" viewBox="0,0,256,256"><g fill="none" fill-rule="nonzero" stroke="none" stroke-width="1" stroke-linecap="butt" stroke-linejoin="miter" stroke-miterlimit="10" stroke-dasharray="" stroke-dashoffset="0" font-family="none" font-weight="none" font-size="none" text-anchor="none" style="mix-blend-mode: normal"><g transform="translate(0,-0.8) scale(5.33333,5.33333)"><path d="M42,39h-36v-16l18,-17l18,17z" fill="#e8eaf6"></path><path d="M39,21l-5,-5v-7h5zM6,39h36v5h-36z" fill="#c5cae9"></path><path d="M24,4.3l-20,18.6l2,2.2l18,-16.7l18,16.7l2,-2.2z" fill="#b71c1c"></path><path d="M18,28h12v16h-12z" fill="#d84315"></path><path d="M21,17h6v6h-6z" fill="#01579b"></path><path d="M27.5,35.5c-0.3,0 -0.5,0.2 -0.5,0.5v2c0,0.3 0.2,0.5 0.5,0.5c0.3,0 0.5,-0.2 0.5,-0.5v-2c0,-0.3 -0.2,-0.5 -0.5,-0.5z" fill="#ff8a65"></path></g></g></svg>